<?xml version="1.0" encoding="UTF-8"?>
<svg xmlns="http://www.w3.org/2000/svg" viewBox="100 670 420 90">
  <defs>
    <style>
      .wh { fill: #fff; stroke: #fff; stroke-miterlimit: 10; }
      .wh-thin { stroke-width: 1.48px; }
      .wh-thick { stroke-width: 3.55px; }
    </style>
  </defs>
  <g>
    <path class="wh wh-thin" d="M230.21,729.32h-11.65v-29.64l-13.17,21.63h-1.31l-13.17-21.63v29.64h-11.67v-50.97h11.65l13.84,22.64,13.83-22.64h11.65v50.97h0,0Z"/>
    <path class="wh wh-thin" d="M269.45,692.91l-12.45,35.31c-4.08,11.57-10.56,16.17-20.75,15.65v-10.19c5.1,0,7.51-1.6,9.09-6.04l-14.49-34.73h12.02l8.08,22.28,6.84-22.28h11.66Z"/>
    <path class="wh wh-thin" d="M266.47,711.11c0-10.84,8.23-19.23,19.3-19.23,7.06,0,13.32,3.71,16.45,9.32l-9.54,5.53c-1.23-2.55-3.86-4.08-7.06-4.08-4.73,0-8.23,3.43-8.23,8.44s3.5,8.44,8.23,8.44c3.2,0,5.9-1.53,7.06-4.08l9.54,5.46c-3.13,5.68-9.32,9.39-16.45,9.39-11.07,0-19.3-8.37-19.3-19.23v.03h0Z"/>
    <path class="wh wh-thin" d="M337.82,706.96v22.36h-10.92v-20.75c0-4.51-2.83-6.63-6.33-6.63-4.01,0-6.76,2.33-6.76,7.51v19.88h-10.92v-50.97h10.92v17.98c1.97-2.7,5.61-4.44,10.41-4.44,7.36,0,13.62,5.24,13.62,15.07h-.02Z"/>
    <path class="wh wh-thin" d="M339.78,711.11c0-10.84,8.59-19.23,19.3-19.23s19.3,8.37,19.3,19.23-8.59,19.23-19.3,19.23-19.3-8.37-19.3-19.23ZM367.44,711.11c0-5.16-3.63-8.59-8.37-8.59s-8.37,3.43-8.37,8.59,3.63,8.59,8.37,8.59,8.37-3.43,8.37-8.59Z"/>
    <path class="wh wh-thin" d="M379.02,711.11c0-10.84,8.59-19.23,19.3-19.23s19.3,8.37,19.3,19.23-8.59,19.23-19.3,19.23-19.3-8.37-19.3-19.23ZM406.68,711.11c0-5.16-3.63-8.59-8.37-8.59s-8.37,3.43-8.37,8.59,3.63,8.59,8.37,8.59,8.37-3.43,8.37-8.59Z"/>
    <path class="wh wh-thin" d="M418.99,683.15c0-3.56,2.98-6.56,6.56-6.56s6.56,2.98,6.56,6.56-2.98,6.56-6.56,6.56-6.56-2.98-6.56-6.56ZM420.08,692.91h10.92v36.4h-10.92v-36.4Z"/>
    <path class="wh wh-thin" d="M433.49,711.11c0-10.84,8.23-19.23,19.3-19.23,7.06,0,13.32,3.71,16.45,9.32l-9.54,5.53c-1.23-2.55-3.86-4.08-7.06-4.08-4.73,0-8.23,3.43-8.23,8.44s3.5,8.44,8.23,8.44c3.2,0,5.9-1.53,7.06-4.08l9.54,5.46c-3.13,5.68-9.32,9.39-16.45,9.39-11.07,0-19.3-8.37-19.3-19.23v.03h0Z"/>
    <path class="wh wh-thin" d="M487.65,720.58c2.98,0,5.53-1.17,6.99-2.77l8.74,5.03c-3.56,4.95-8.96,7.51-15.87,7.51-12.45,0-20.18-8.37-20.18-19.23s7.86-19.23,19.37-19.23c10.64,0,18.5,8.23,18.5,19.23,0,1.53-.15,2.98-.43,4.36h-25.84c1.38,3.78,4.73,5.1,8.74,5.1h-.02ZM494.35,707.33c-1.17-4.23-4.44-5.76-7.71-5.76-4.15,0-6.91,2.03-7.94,5.76h15.65Z"/>
  </g>
  <path class="wh wh-thick" d="M124.18,706.3c-.07,10.71,2.26,20.86,6.73,30.59,2.9,6.3-1.61,13.37-8.52,13.37-3.73,0-6.69-1.73-8.38-5.12-2.93-5.87-4.94-12.06-6.4-18.45-1.39-6.09-2.08-12.27-2.13-18.5-.04-5.37.4-10.71,1.36-16.01,1.73-9.6,4.95-18.67,9.61-27.24.69-1.28.72-1.3,2.01-.59,1.05.58,2.06,1.21,3.11,1.79.57.31.67.65.34,1.24-3.11,5.46-5.49,11.23-7.22,17.27-2.25,7.8-3.32,15.77-3.16,23.89.22,11.65,2.86,22.73,7.73,33.31,1.11,2.42,3.79,2.99,5.52,1.14,1-1.07,1.08-2.31.5-3.62-1.08-2.44-2.14-4.88-3-7.41-2.18-6.41-3.51-12.98-3.93-19.75-.54-8.54.38-16.92,2.67-25.16,1.06-3.83,2.44-7.54,4.16-11.12,2.33-4.91,9.22-6.58,13.63-3.31,3.85,2.84,4.96,7.33,2.93,11.87-3.31,7.38-4.89,15.14-4.83,23.21.06,7.39,1.52,14.53,4.45,21.34.54,1.25,1.37,2.14,2.78,2.28,2.49.24,4.24-2.11,3.32-4.52-.89-2.3-1.73-4.6-2.33-7-2.53-10.11-1.98-20.05,1.62-29.82,1.62-4.4,5.33-6.63,10.18-6.17,3.8.36,7.13,3.6,7.86,7.71.33,1.83,0,3.59-.64,5.33-1.19,3.24-1.81,6.59-1.84,10.04-.05,5.55,1.32,10.76,4.04,15.6.51.9.3,1.61-.61,2.13-1.01.57-2.05,1.11-3.02,1.74-.74.48-1.11.28-1.52-.44-3.43-6.06-5.09-12.57-4.9-19.55.11-4.14.9-8.14,2.34-12.02.71-1.92-.11-3.81-1.9-4.47-1.84-.69-3.61.15-4.34,2.13-3.93,10.67-3.72,21.29.56,31.81,1.32,3.22,1.39,6.34-.51,9.31-2.02,3.15-5.02,4.62-8.72,4.32-3.58-.29-6.3-2.12-7.75-5.43-3.64-8.29-5.25-17-5.04-26.06.2-8.49,2.05-16.58,5.57-24.3.85-1.85.08-3.7-1.82-4.59-1.53-.72-3.46.05-4.34,1.84-1.12,2.27-1.96,4.66-2.75,7.07-2.03,6.18-3.06,12.53-3.35,19.02-.02.44,0,.89,0,1.33h-.04l-.03-.03Z"/>
</svg>
